{
  "asset": {
    "version": "2.0",
    "generator": "AZRAID PrepareAviationDistrict.py"
  },
  "scene": 0,
  "scenes": [
    {
      "nodes": [
        0
      ]
    }
  ],
  "nodes": [
    {
      "name": "AviationDistrict",
      "mesh": 0
    }
  ],
  "meshes": [
    {
      "primitives": [
        {
          "material": 0,
          "attributes": {
            "POSITION": 0,
            "NORMAL": 1
          },
          "indices": 2
        },
        {
          "material": 1,
          "attributes": {
            "POSITION": 3,
            "NORMAL": 4
          },
          "indices": 5
        },
        {
          "material": 2,
          "attributes": {
            "POSITION": 6,
            "NORMAL": 7
          },
          "indices": 8
        },
        {
          "material": 3,
          "attributes": {
            "POSITION": 9,
            "NORMAL": 10
          },
          "indices": 11
        },
        {
          "material": 4,
          "attributes": {
            "POSITION": 12,
            "NORMAL": 13
          },
          "indices": 14
        }
      ]
    }
  ],
  "materials": [
    {
      "name": "ivory_panels",
      "pbrMetallicRoughness": {
        "baseColorFactor": [
          0.64,
          0.66,
          0.65,
          1
        ],
        "metallicFactor": 0.06,
        "roughnessFactor": 0.72
      }
    },
    {
      "name": "blue_black_structure",
      "pbrMetallicRoughness": {
        "baseColorFactor": [
          0.19,
          0.22,
          0.25,
          1
        ],
        "metallicFactor": 0.32,
        "roughnessFactor": 0.52
      }
    },
    {
      "name": "oxide_red_identification",
      "pbrMetallicRoughness": {
        "baseColorFactor": [
          0.36,
          0.07,
          0.09,
          1
        ],
        "metallicFactor": 0.08,
        "roughnessFactor": 0.65
      }
    },
    {
      "name": "apron_concrete",
      "pbrMetallicRoughness": {
        "baseColorFactor": [
          0.3,
          0.33,
          0.34,
          1
        ],
        "metallicFactor": 0.02,
        "roughnessFactor": 0.85
      }
    },
    {
      "name": "flightway_markings",
      "pbrMetallicRoughness": {
        "baseColorFactor": [
          0.78,
          0.77,
          0.7,
          1
        ],
        "metallicFactor": 0.0,
        "roughnessFactor": 0.82
      }
    }
  ],
  "accessors": [
    {
      "bufferView": 0,
      "componentType": 5126,
      "count": 1752,
      "type": "VEC3",
      "min": [
        -84.0,
        0.25,
        -216.0
      ],
      "max": [
        75.5,
        59.25,
        150.0
      ]
    },
    {
      "bufferView": 1,
      "componentType": 5126,
      "count": 1752,
      "type": "VEC3",
      "min": [
        -1.0,
        -1.0,
        -1.0
      ],
      "max": [
        1.0,
        1.0,
        1.0
      ]
    },
    {
      "bufferView": 2,
      "componentType": 5125,
      "count": 3024,
      "type": "SCALAR",
      "min": [
        0
      ],
      "max": [
        1751
      ]
    },
    {
      "bufferView": 3,
      "componentType": 5126,
      "count": 3336,
      "type": "VEC3",
      "min": [
        -85.5,
        0.34999999999999987,
        -216.0
      ],
      "max": [
        76.5,
        55.15,
        152.0
      ]
    },
    {
      "bufferView": 4,
      "componentType": 5126,
      "count": 3336,
      "type": "VEC3",
      "min": [
        -1.0,
        -1.0,
        -1.0
      ],
      "max": [
        1.0,
        1.0,
        1.0
      ]
    },
    {
      "bufferView": 5,
      "componentType": 5125,
      "count": 5436,
      "type": "SCALAR",
      "min": [
        0
      ],
      "max": [
        3335
      ]
    },
    {
      "bufferView": 6,
      "componentType": 5126,
      "count": 624,
      "type": "VEC3",
      "min": [
        -54.5,
        0.9600000000000001,
        -212.65
      ],
      "max": [
        51.725,
        36.2,
        146.5
      ]
    },
    {
      "bufferView": 7,
      "componentType": 5126,
      "count": 624,
      "type": "VEC3",
      "min": [
        -1.0,
        -1.0,
        -1.0
      ],
      "max": [
        1.0,
        1.0,
        1.0
      ]
    },
    {
      "bufferView": 8,
      "componentType": 5125,
      "count": 960,
      "type": "SCALAR",
      "min": [
        0
      ],
      "max": [
        623
      ]
    },
    {
      "bufferView": 9,
      "componentType": 5126,
      "count": 816,
      "type": "VEC3",
      "min": [
        -86.5,
        -0.15,
        -218.0
      ],
      "max": [
        76.5,
        13.35,
        156.0
      ]
    },
    {
      "bufferView": 10,
      "componentType": 5126,
      "count": 816,
      "type": "VEC3",
      "min": [
        -1.0,
        -1.0,
        -1.0
      ],
      "max": [
        1.0,
        1.0,
        1.0
      ]
    },
    {
      "bufferView": 11,
      "componentType": 5125,
      "count": 1380,
      "type": "SCALAR",
      "min": [
        0
      ],
      "max": [
        815
      ]
    },
    {
      "bufferView": 12,
      "componentType": 5126,
      "count": 336,
      "type": "VEC3",
      "min": [
        -48.0,
        0.46499999999999997,
        -109.2
      ],
      "max": [
        48.0,
        0.9500000000000001,
        145.0
      ]
    },
    {
      "bufferView": 13,
      "componentType": 5126,
      "count": 336,
      "type": "VEC3",
      "min": [
        -1.0,
        -1.0,
        -1.0
      ],
      "max": [
        1.0,
        1.0,
        1.0
      ]
    },
    {
      "bufferView": 14,
      "componentType": 5125,
      "count": 504,
      "type": "SCALAR",
      "min": [
        0
      ],
      "max": [
        335
      ]
    }
  ],
  "bufferViews": [
    {
      "buffer": 0,
      "byteOffset": 0,
      "byteLength": 21024
    },
    {
      "buffer": 0,
      "byteOffset": 21024,
      "byteLength": 21024
    },
    {
      "buffer": 0,
      "byteOffset": 42048,
      "byteLength": 12096
    },
    {
      "buffer": 0,
      "byteOffset": 54144,
      "byteLength": 40032
    },
    {
      "buffer": 0,
      "byteOffset": 94176,
      "byteLength": 40032
    },
    {
      "buffer": 0,
      "byteOffset": 134208,
      "byteLength": 21744
    },
    {
      "buffer": 0,
      "byteOffset": 155952,
      "byteLength": 7488
    },
    {
      "buffer": 0,
      "byteOffset": 163440,
      "byteLength": 7488
    },
    {
      "buffer": 0,
      "byteOffset": 170928,
      "byteLength": 3840
    },
    {
      "buffer": 0,
      "byteOffset": 174768,
      "byteLength": 9792
    },
    {
      "buffer": 0,
      "byteOffset": 184560,
      "byteLength": 9792
    },
    {
      "buffer": 0,
      "byteOffset": 194352,
      "byteLength": 5520
    },
    {
      "buffer": 0,
      "byteOffset": 199872,
      "byteLength": 4032
    },
    {
      "buffer": 0,
      "byteOffset": 203904,
      "byteLength": 4032
    },
    {
      "buffer": 0,
      "byteOffset": 207936,
      "byteLength": 2016
    }
  ],
  "buffers": [
    {
      "uri": "AviationDistrict.bin",
      "byteLength": 209952
    }
  ]
}
