{
  "asset": {
    "version": "2.0",
    "generator": "AZRAID PrepareAviationDistrict.py"
  },
  "scene": 0,
  "scenes": [
    {
      "nodes": [
        0
      ]
    }
  ],
  "nodes": [
    {
      "name": "AviationDefenseFlightway",
      "mesh": 0
    }
  ],
  "meshes": [
    {
      "primitives": [
        {
          "material": 0,
          "attributes": {
            "POSITION": 0,
            "NORMAL": 1
          },
          "indices": 2
        },
        {
          "material": 1,
          "attributes": {
            "POSITION": 3,
            "NORMAL": 4,
            "TEXCOORD_0": 5
          },
          "indices": 6
        }
      ]
    }
  ],
  "materials": [
    {
      "name": "flightway_markings",
      "pbrMetallicRoughness": {
        "baseColorFactor": [
          0.78,
          0.77,
          0.7,
          1
        ],
        "metallicFactor": 0.0,
        "roughnessFactor": 0.82
      }
    },
    {
      "name": "flightway_tarmac",
      "pbrMetallicRoughness": {
        "baseColorFactor": [
          0.86,
          0.9,
          0.94,
          1
        ],
        "metallicFactor": 0.0,
        "roughnessFactor": 0.9,
        "baseColorTexture": {
          "index": 0
        }
      }
    }
  ],
  "accessors": [
    {
      "bufferView": 0,
      "componentType": 5126,
      "count": 120,
      "type": "VEC3",
      "min": [
        -10.9,
        0.16499999999999998,
        -64.0
      ],
      "max": [
        10.9,
        0.185,
        64.0
      ]
    },
    {
      "bufferView": 1,
      "componentType": 5126,
      "count": 120,
      "type": "VEC3",
      "min": [
        -1.0,
        -1.0,
        -1.0
      ],
      "max": [
        1.0,
        1.0,
        1.0
      ]
    },
    {
      "bufferView": 2,
      "componentType": 5125,
      "count": 180,
      "type": "SCALAR",
      "min": [
        0
      ],
      "max": [
        119
      ]
    },
    {
      "bufferView": 3,
      "componentType": 5126,
      "count": 4,
      "type": "VEC3",
      "min": [
        -12.0,
        0.15,
        -64.0
      ],
      "max": [
        12.0,
        0.15,
        64.0
      ]
    },
    {
      "bufferView": 4,
      "componentType": 5126,
      "count": 4,
      "type": "VEC3",
      "min": [
        -0.0,
        1.0,
        -0.0
      ],
      "max": [
        -0.0,
        1.0,
        -0.0
      ]
    },
    {
      "bufferView": 5,
      "componentType": 5126,
      "count": 4,
      "type": "VEC2",
      "min": [
        -2.0,
        -10.5
      ],
      "max": [
        2.0,
        10.5
      ]
    },
    {
      "bufferView": 6,
      "componentType": 5125,
      "count": 6,
      "type": "SCALAR",
      "min": [
        0
      ],
      "max": [
        3
      ]
    }
  ],
  "bufferViews": [
    {
      "buffer": 0,
      "byteOffset": 0,
      "byteLength": 1440
    },
    {
      "buffer": 0,
      "byteOffset": 1440,
      "byteLength": 1440
    },
    {
      "buffer": 0,
      "byteOffset": 2880,
      "byteLength": 720
    },
    {
      "buffer": 0,
      "byteOffset": 3600,
      "byteLength": 48
    },
    {
      "buffer": 0,
      "byteOffset": 3648,
      "byteLength": 48
    },
    {
      "buffer": 0,
      "byteOffset": 3696,
      "byteLength": 32
    },
    {
      "buffer": 0,
      "byteOffset": 3728,
      "byteLength": 24
    }
  ],
  "images": [
    {
      "uri": "../../free_models/Downtown City MegaKit[Standard]/Exports/glTF (Godot)/T_Concrete_Asphalt_BaseColor.png"
    }
  ],
  "samplers": [
    {
      "wrapS": 10497,
      "wrapT": 10497
    }
  ],
  "textures": [
    {
      "source": 0,
      "sampler": 0
    }
  ],
  "buffers": [
    {
      "uri": "AviationDefenseFlightway.bin",
      "byteLength": 3752
    }
  ]
}
