{
  "asset": {
    "version": "2.0",
    "generator": "AZRAID PrepareAviationDistrict.py"
  },
  "scene": 0,
  "scenes": [
    {
      "nodes": [
        0
      ]
    }
  ],
  "nodes": [
    {
      "name": "AviationGlazing",
      "mesh": 0
    }
  ],
  "meshes": [
    {
      "primitives": [
        {
          "material": 0,
          "attributes": {
            "POSITION": 0,
            "NORMAL": 1
          },
          "indices": 2
        }
      ]
    }
  ],
  "materials": [
    {
      "name": "control_glazing",
      "pbrMetallicRoughness": {
        "baseColorFactor": [
          0.08,
          0.13,
          0.17,
          1
        ],
        "metallicFactor": 0.35,
        "roughnessFactor": 0.22
      }
    }
  ],
  "accessors": [
    {
      "bufferView": 0,
      "componentType": 5126,
      "count": 432,
      "type": "VEC3",
      "min": [
        -81.75,
        2.6999999999999997,
        -167.21
      ],
      "max": [
        55.5,
        45.15,
        22.5
      ]
    },
    {
      "bufferView": 1,
      "componentType": 5126,
      "count": 432,
      "type": "VEC3",
      "min": [
        -1.0,
        -1.0,
        -1.0
      ],
      "max": [
        1.0,
        1.0,
        1.0
      ]
    },
    {
      "bufferView": 2,
      "componentType": 5125,
      "count": 684,
      "type": "SCALAR",
      "min": [
        0
      ],
      "max": [
        431
      ]
    }
  ],
  "bufferViews": [
    {
      "buffer": 0,
      "byteOffset": 0,
      "byteLength": 5184
    },
    {
      "buffer": 0,
      "byteOffset": 5184,
      "byteLength": 5184
    },
    {
      "buffer": 0,
      "byteOffset": 10368,
      "byteLength": 2736
    }
  ],
  "buffers": [
    {
      "uri": "AviationGlazing.bin",
      "byteLength": 13104
    }
  ]
}
