{
  "asset": {
    "version": "2.0",
    "generator": "AZRAID PrepareAviationDistrict.py"
  },
  "scene": 0,
  "scenes": [
    {
      "nodes": [
        0
      ]
    }
  ],
  "nodes": [
    {
      "name": "AviationBossApronFreight",
      "mesh": 0
    }
  ],
  "meshes": [
    {
      "primitives": [
        {
          "material": 0,
          "attributes": {
            "POSITION": 0,
            "NORMAL": 1
          },
          "indices": 2
        },
        {
          "material": 1,
          "attributes": {
            "POSITION": 3,
            "NORMAL": 4
          },
          "indices": 5
        },
        {
          "material": 2,
          "attributes": {
            "POSITION": 6,
            "NORMAL": 7
          },
          "indices": 8
        },
        {
          "material": 3,
          "attributes": {
            "POSITION": 9,
            "NORMAL": 10
          },
          "indices": 11
        },
        {
          "material": 4,
          "attributes": {
            "POSITION": 12,
            "NORMAL": 13
          },
          "indices": 14
        }
      ]
    }
  ],
  "materials": [
    {
      "name": "ivory_panels",
      "pbrMetallicRoughness": {
        "baseColorFactor": [
          0.64,
          0.66,
          0.65,
          1
        ],
        "metallicFactor": 0.06,
        "roughnessFactor": 0.72
      }
    },
    {
      "name": "blue_black_structure",
      "pbrMetallicRoughness": {
        "baseColorFactor": [
          0.19,
          0.22,
          0.25,
          1
        ],
        "metallicFactor": 0.32,
        "roughnessFactor": 0.52
      }
    },
    {
      "name": "oxide_red_identification",
      "pbrMetallicRoughness": {
        "baseColorFactor": [
          0.36,
          0.07,
          0.09,
          1
        ],
        "metallicFactor": 0.08,
        "roughnessFactor": 0.65
      }
    },
    {
      "name": "apron_concrete",
      "pbrMetallicRoughness": {
        "baseColorFactor": [
          0.3,
          0.33,
          0.34,
          1
        ],
        "metallicFactor": 0.02,
        "roughnessFactor": 0.85
      }
    },
    {
      "name": "safety_reflectors",
      "pbrMetallicRoughness": {
        "baseColorFactor": [
          0.8,
          0.53,
          0.17,
          1
        ],
        "metallicFactor": 0.05,
        "roughnessFactor": 0.7
      }
    }
  ],
  "accessors": [
    {
      "bufferView": 0,
      "componentType": 5126,
      "count": 1128,
      "type": "VEC3",
      "min": [
        -90.0,
        0.40000000000000036,
        -128.0
      ],
      "max": [
        88.0,
        20.4,
        128.0
      ]
    },
    {
      "bufferView": 1,
      "componentType": 5126,
      "count": 1128,
      "type": "VEC3",
      "min": [
        -1.0,
        -1.0,
        -1.0
      ],
      "max": [
        1.0,
        1.0,
        1.0
      ]
    },
    {
      "bufferView": 2,
      "componentType": 5125,
      "count": 1980,
      "type": "SCALAR",
      "min": [
        0
      ],
      "max": [
        1127
      ]
    },
    {
      "bufferView": 3,
      "componentType": 5126,
      "count": 1512,
      "type": "VEC3",
      "min": [
        -91.5,
        0.0,
        -115.65
      ],
      "max": [
        90.0,
        19.599999999999998,
        112.65
      ]
    },
    {
      "bufferView": 4,
      "componentType": 5126,
      "count": 1512,
      "type": "VEC3",
      "min": [
        -1.0,
        -1.0,
        -1.0
      ],
      "max": [
        1.0,
        1.0,
        1.0
      ]
    },
    {
      "bufferView": 5,
      "componentType": 5125,
      "count": 2568,
      "type": "SCALAR",
      "min": [
        0
      ],
      "max": [
        1511
      ]
    },
    {
      "bufferView": 6,
      "componentType": 5126,
      "count": 288,
      "type": "VEC3",
      "min": [
        -54.49,
        1.7,
        -71.08
      ],
      "max": [
        83.08,
        8.025,
        72.5
      ]
    },
    {
      "bufferView": 7,
      "componentType": 5126,
      "count": 288,
      "type": "VEC3",
      "min": [
        -1.0,
        -1.0,
        -1.0
      ],
      "max": [
        1.0,
        1.0,
        1.0
      ]
    },
    {
      "bufferView": 8,
      "componentType": 5125,
      "count": 528,
      "type": "SCALAR",
      "min": [
        0
      ],
      "max": [
        287
      ]
    },
    {
      "bufferView": 9,
      "componentType": 5126,
      "count": 456,
      "type": "VEC3",
      "min": [
        -92.0,
        0.0,
        -128.0
      ],
      "max": [
        91.0,
        15.950000000000001,
        128.0
      ]
    },
    {
      "bufferView": 10,
      "componentType": 5126,
      "count": 456,
      "type": "VEC3",
      "min": [
        -1.0,
        -1.0,
        -1.0
      ],
      "max": [
        1.0,
        1.0,
        1.0
      ]
    },
    {
      "bufferView": 11,
      "componentType": 5125,
      "count": 768,
      "type": "SCALAR",
      "min": [
        0
      ],
      "max": [
        455
      ]
    },
    {
      "bufferView": 12,
      "componentType": 5126,
      "count": 96,
      "type": "VEC3",
      "min": [
        -39.05,
        6.6499999999999995,
        -114.485
      ],
      "max": [
        39.05,
        6.95,
        110.585
      ]
    },
    {
      "bufferView": 13,
      "componentType": 5126,
      "count": 96,
      "type": "VEC3",
      "min": [
        -1.0,
        -1.0,
        -1.0
      ],
      "max": [
        1.0,
        1.0,
        1.0
      ]
    },
    {
      "bufferView": 14,
      "componentType": 5125,
      "count": 144,
      "type": "SCALAR",
      "min": [
        0
      ],
      "max": [
        95
      ]
    }
  ],
  "bufferViews": [
    {
      "buffer": 0,
      "byteOffset": 0,
      "byteLength": 13536
    },
    {
      "buffer": 0,
      "byteOffset": 13536,
      "byteLength": 13536
    },
    {
      "buffer": 0,
      "byteOffset": 27072,
      "byteLength": 7920
    },
    {
      "buffer": 0,
      "byteOffset": 34992,
      "byteLength": 18144
    },
    {
      "buffer": 0,
      "byteOffset": 53136,
      "byteLength": 18144
    },
    {
      "buffer": 0,
      "byteOffset": 71280,
      "byteLength": 10272
    },
    {
      "buffer": 0,
      "byteOffset": 81552,
      "byteLength": 3456
    },
    {
      "buffer": 0,
      "byteOffset": 85008,
      "byteLength": 3456
    },
    {
      "buffer": 0,
      "byteOffset": 88464,
      "byteLength": 2112
    },
    {
      "buffer": 0,
      "byteOffset": 90576,
      "byteLength": 5472
    },
    {
      "buffer": 0,
      "byteOffset": 96048,
      "byteLength": 5472
    },
    {
      "buffer": 0,
      "byteOffset": 101520,
      "byteLength": 3072
    },
    {
      "buffer": 0,
      "byteOffset": 104592,
      "byteLength": 1152
    },
    {
      "buffer": 0,
      "byteOffset": 105744,
      "byteLength": 1152
    },
    {
      "buffer": 0,
      "byteOffset": 106896,
      "byteLength": 576
    }
  ],
  "buffers": [
    {
      "uri": "AviationBossApronFreight.bin",
      "byteLength": 107472
    }
  ]
}
