{
  "asset": {
    "version": "2.0",
    "generator": "AZRAID PrepareAviationDistrict.py"
  },
  "scene": 0,
  "scenes": [
    {
      "nodes": [
        0
      ]
    }
  ],
  "nodes": [
    {
      "name": "AviationDefenseGlazing",
      "mesh": 0
    }
  ],
  "meshes": [
    {
      "primitives": [
        {
          "material": 0,
          "attributes": {
            "POSITION": 0,
            "NORMAL": 1
          },
          "indices": 2
        }
      ]
    }
  ],
  "materials": [
    {
      "name": "control_glazing",
      "pbrMetallicRoughness": {
        "baseColorFactor": [
          0.08,
          0.13,
          0.17,
          1
        ],
        "metallicFactor": 0.35,
        "roughnessFactor": 0.22
      }
    }
  ],
  "accessors": [
    {
      "bufferView": 0,
      "componentType": 5126,
      "count": 384,
      "type": "VEC3",
      "min": [
        -61.0,
        8.450000000000001,
        -46.31
      ],
      "max": [
        58.5,
        52.6,
        41.230000000000004
      ]
    },
    {
      "bufferView": 1,
      "componentType": 5126,
      "count": 384,
      "type": "VEC3",
      "min": [
        -1.0,
        -1.0,
        -1.0
      ],
      "max": [
        1.0,
        1.0,
        1.0
      ]
    },
    {
      "bufferView": 2,
      "componentType": 5125,
      "count": 600,
      "type": "SCALAR",
      "min": [
        0
      ],
      "max": [
        383
      ]
    }
  ],
  "bufferViews": [
    {
      "buffer": 0,
      "byteOffset": 0,
      "byteLength": 4608
    },
    {
      "buffer": 0,
      "byteOffset": 4608,
      "byteLength": 4608
    },
    {
      "buffer": 0,
      "byteOffset": 9216,
      "byteLength": 2400
    }
  ],
  "buffers": [
    {
      "uri": "AviationDefenseGlazing.bin",
      "byteLength": 11616
    }
  ]
}
